<?xml version="1.0" standalone="no"?><!DOCTYPE svg PUBLIC "-//W3C//DTD SVG 1.1//EN" "http://www.w3.org/Graphics/SVG/1.1/DTD/svg11.dtd"><svg t="1698475688811" class="icon" viewBox="0 0 1024 1024" version="1.1" xmlns="http://www.w3.org/2000/svg" p-id="2513" xmlns:xlink="http://www.w3.org/1999/xlink" width="200" height="200"><path d="M983.45032355 344.79952431c-0.27152492-0.63749366-0.20069137-1.28679383-0.33055197-1.92428472L857.30917718 91.25404798c-8.49991824-16.52761741-25.73586288-27.86084177-45.63983906-27.86084173H210.57165177c-19.66786519 0-36.70311847 11.13253297-45.2620666 27.35320868L37.77539742 345.77937644c-5.19439307 11.80544061-9.20824547 24.68518002-9.20824549 38.45032487 0 5.46592083 0.94443539 10.73114748 2.05414813 15.92554051 10.58948032 49.34674691 50.49187643 87.83248859 100.61778136 96.33240689v430.39099694c0 19.08939859 15.44151775 34.54272285 34.53091628 34.54272288h690.78363175c19.08939859 0 34.54272285-15.45332425 34.54272281-34.54272288v-430.39099694c51.07034304-8.66519564 91.70467385-48.36689478 101.39694213-99.03585234 0.20069137-1.14512673 0.27152492-2.36108699 0.43679955-3.50621654 0.60207689-3.84857501 0.80277106-7.82700781 1.07429592-11.8054406-0.49582932-13.52903677-5.41869749-25.66503214-10.55406631-37.34061492z m-161.42761321 547.53639851H200.31272054v-403.54542132c15.81929298-6.7172979 29.78512928-16.76372837 41.46071209-29.00597128 8.09853276 8.49991824 17.43663882 15.54776813 27.62473645 21.48590516v272.90639982c0 19.08939859 15.45332425 34.54272285 34.54272277 34.54272563h414.47726018c19.08939859 0 34.54272285-15.45332425 34.54272285-34.54272563v-272.90639982c10.17629108-5.93813709 19.5262009-12.98598691 27.62473642-21.48590516 11.67558283 12.24224291 25.6414191 22.28867334 41.44890554 29.00597128v403.54542132z m-483.53909557-172.69000395v-221.77703251c32.54760461-1.81803714 61.75426725-15.89012378 82.90961759-38.08435614 22.66644868 23.77616142 54.43489247 38.79268338 89.79219287 38.79268336 35.34549388 0 67.11393771-15.01652194 89.78038636-38.79268336 21.1435467 22.19422958 50.36201581 36.25451247 82.90961763 38.08435614v221.77703251H338.48361477z m531.91779686-290.1541538c-28.16778343 0-51.20020083-21.24979423-54.6119736-48.50855904v0.23610811c-2.30205999-17.23594462-17.16511391-30.62331707-35.05035868-30.62331707-17.4720528 0-32.00455196 12.71446199-34.80244124 29.38374652-0.03541677 0.27152492-0.0708336-1.07429595-0.12986057-3.50621649-1.18054352 29.40735678-25.29906341 53.01824084-55.01335912 53.01823797-29.24207942 0-53.01824084-22.9025568-54.90711154-51.6724171-0.03541677 1.68817938-0.03541677 2.76247251-0.07083076 2.59719509-2.29025622-17.23594462-17.16511391-30.62331707-35.05035868-30.62331424-17.4720528 0-32.00455196 12.71446199-34.81424781 29.38374375v-0.12986062c-2.49094759 28.19139651-25.97197105 50.45645964-54.77725094 50.45645966-28.46292144 0-51.70783676-21.7220133-54.64739036-49.45299725-2.49094759-17.03525326-17.20052787-30.25734838-34.9441083-30.25734554-17.4720528 0-32.00455196 12.71446199-34.80244409 29.38374375-0.03541677 0.23610816-0.0708336-0.94443539-0.12985777-3.10483102-0.94443539 29.5844379-25.19281301 53.43143005-55.08419263 53.43143006-28.36847764 0-51.5661696-21.6275695-54.63558666-49.18147234v0.10625038c-2.29025622-17.23594462-17.16511391-30.63512082-35.05035591-30.63512083-17.4720528 0-32.00455196 12.71446199-34.81424779 29.38374375-0.03541677 0.20069137-0.0708336-0.77915798-0.10625033-2.29025626-1.38123769 29.20666265-25.42892121 52.61685533-55.01335904 52.6168553-28.13236945 0-51.1647841-21.24979423-54.57655961-48.46133859l124.29949891-248.55177455h579.00970718l124.29949893 248.55177455c-3.41177274 27.19973789-26.45599668 48.44953487-54.57655959 48.44953205z m0 0" p-id="2514"></path></svg>